<svg xmlns="http://www.w3.org/2000/svg" xmlns:xlink="http://www.w3.org/1999/xlink" width="32.746" height="28.532" viewBox="0 0 32.746 28.532">
  <defs>
    <style>
      .cls-1, .cls-4, .cls-7 {
        fill: none;
      }

      .cls-2 {
        clip-path: url(#clip-path);
      }

      .cls-3 {
        fill: #aeb0b3;
      }

      .cls-4 {
        stroke: #6d6f72;
      }

      .cls-4, .cls-7 {
        stroke-miterlimit: 10;
        stroke-width: 0.25px;
      }

      .cls-5 {
        fill: #1a1818;
      }

      .cls-6 {
        fill: #fad643;
      }

      .cls-7 {
        stroke: #e6c63f;
      }
    </style>
    <clipPath id="clip-path">
      <rect id="Rectangle_12" data-name="Rectangle 12" class="cls-1" width="32.746" height="28.532" transform="translate(0 0)"/>
    </clipPath>
  </defs>
  <g id="Group_93" data-name="Group 93" transform="translate(0 0)">
    <g id="Group_92" data-name="Group 92" class="cls-2">
      <path id="Path_115" data-name="Path 115" class="cls-3" d="M10.131,11.528S2.386,4.939,8.147,1.579C12.548-.4,15.8,6.064,15.8,6.064S14.9-.358,20.24.154c5.7.546,2.351,10.752,2.351,10.752"/>
      <path id="Path_116" data-name="Path 116" class="cls-4" d="M10.131,11.528S2.386,4.939,8.147,1.579C12.548-.4,15.8,6.064,15.8,6.064S14.9-.358,20.24.154c5.7.546,2.351,10.752,2.351,10.752"/>
      <path id="Path_117" data-name="Path 117" class="cls-5" d="M5.376,17.087S.06,17.7,0,19.217s5.137,2.169,5.137,2.169a5.465,5.465,0,0,1,.239-4.3"/>
      <path id="Path_118" data-name="Path 118" class="cls-6" d="M32.621,19.2c0,5.087-6.539,9.211-14.606,9.211S3.409,24.283,3.409,19.2,9.948,9.985,18.015,9.985,32.621,14.109,32.621,19.2"/>
      <ellipse id="Ellipse_1" data-name="Ellipse 1" class="cls-7" cx="14.606" cy="9.211" rx="14.606" ry="9.211" transform="translate(3.409 9.985)"/>
      <path id="Path_119" data-name="Path 119" class="cls-5" d="M20.514,10.146s-6.95,10.122.562,18.129c1.742-.258,3.222-.594,3.222-.594S17.332,22.048,23.283,10.6a19.876,19.876,0,0,0-2.769-.456"/>
      <path id="Path_120" data-name="Path 120" class="cls-7" d="M20.514,10.146s-6.95,10.122.562,18.129c1.742-.258,3.222-.594,3.222-.594S17.332,22.048,23.283,10.6A19.876,19.876,0,0,0,20.514,10.146Z"/>
      <path id="Path_121" data-name="Path 121" class="cls-5" d="M12.556,10.669s-7.034,9.181.478,17.188c1.687.314,3.527.5,3.527.5s-6.831-6.805-.88-18.251c-1.2.125-3.125.559-3.125.559"/>
      <path id="Path_122" data-name="Path 122" class="cls-7" d="M12.556,10.669s-7.034,9.181.478,17.188c1.687.314,3.527.5,3.527.5s-6.831-6.805-.88-18.251C14.476,10.235,12.556,10.669,12.556,10.669Z"/>
      <path id="Path_123" data-name="Path 123" class="cls-5" d="M29.058,17.239a1.932,1.932,0,1,1-1.931-1.931,1.931,1.931,0,0,1,1.931,1.931"/>
      <path id="Path_124" data-name="Path 124" class="cls-7" d="M29.058,17.239a1.932,1.932,0,1,1-1.931-1.931A1.931,1.931,0,0,1,29.058,17.239Z"/>
    </g>
  </g>
</svg>
